<svg xmlns="http://www.w3.org/2000/svg" viewBox="0 0 32 32" width="32" height="32">
  <g transform="translate(16,16) scale(0.95)">
    <ellipse cx="0" cy="-8" rx="5" ry="8" fill="#f9a8d4" transform="rotate(0)"/>
    <ellipse cx="0" cy="-8" rx="5" ry="8" fill="#f9a8d4" transform="rotate(72)"/>
    <ellipse cx="0" cy="-8" rx="5" ry="8" fill="#f9a8d4" transform="rotate(144)"/>
    <ellipse cx="0" cy="-8" rx="5" ry="8" fill="#f9a8d4" transform="rotate(216)"/>
    <ellipse cx="0" cy="-8" rx="5" ry="8" fill="#f9a8d4" transform="rotate(288)"/>
    <ellipse cx="0" cy="-8" rx="5" ry="8" fill="none" stroke="#ec4899" stroke-width="0.5" transform="rotate(0)"/>
    <ellipse cx="0" cy="-8" rx="5" ry="8" fill="none" stroke="#ec4899" stroke-width="0.5" transform="rotate(72)"/>
    <ellipse cx="0" cy="-8" rx="5" ry="8" fill="none" stroke="#ec4899" stroke-width="0.5" transform="rotate(144)"/>
    <ellipse cx="0" cy="-8" rx="5" ry="8" fill="none" stroke="#ec4899" stroke-width="0.5" transform="rotate(216)"/>
    <ellipse cx="0" cy="-8" rx="5" ry="8" fill="none" stroke="#ec4899" stroke-width="0.5" transform="rotate(288)"/>
    <circle cx="0" cy="0" r="3.5" fill="none" stroke="#ec4899" stroke-width="0.5"/>
    <circle cx="0" cy="0" r="1.6" fill="#fbbf24"/>
  </g>
</svg>
